mtllib skin.mtl
o mesh.skin
v -50 -50 15 
v 50 -50 15 
v -50 50 15 
v 50 50 15 
v -50 50 -15 
v 50 50 -15 
v -50 -50 -15 
v 50 -50 -15 
vt 0 0 
vt 0 1 
vt 1 0 
vt 1 1 
vn 0.000000 0.000000 1.000000 
vn 0.000000 0.000000 1.000000 
vn 0.000000 0.000000 1.000000 
vn 0.000000 0.000000 1.000000 
vn 0.000000 1.000000 0.000000 
vn 0.000000 1.000000 0.000000 
vn 0.000000 1.000000 0.000000 
vn 0.000000 1.000000 0.000000 
vn 0.000000 0.000000 -1.000000 
vn 0.000000 0.000000 -1.000000 
vn 0.000000 0.000000 -1.000000 
vn 0.000000 0.000000 -1.000000 
vn 0.000000 -1.000000 0.000000 
vn 0.000000 -1.000000 0.000000 
vn 0.000000 -1.000000 0.000000 
vn 0.000000 -1.000000 0.000000 
vn 1.000000 0.000000 0.000000 
vn 1.000000 0.000000 0.000000 
vn 1.000000 0.000000 0.000000 
vn 1.000000 0.000000 0.000000 
vn -1.000000 0.000000 0.000000 
vn -1.000000 0.000000 0.000000 
vn -1.000000 0.000000 0.000000 
vn -1.000000 0.000000 0.000000
g mesh.skin_forward
usemtl skin_forward
f 1/1/1 2/2/2 3/3/3 
f 3/3/3 2/2/2 4/4/4
g mesh.skin_side
usemtl skin_side
f 3/2/5 4/4/6 5/3/7 
f 5/3/7 4/4/6 6/1/8
f 7/1/13 8/3/14 1/4/15 
f 1/4/15 8/3/14 2/2/16
f 2/2/17 8/3/18 4/4/19 
f 4/4/19 8/3/18 6/1/20
f 7/1/21 1/2/22 5/3/23 
f 5/3/23 1/2/22 3/4/24
g mesh.skin_back
usemtl skin_back
f 5/1/9 6/2/10 7/3/11 
f 7/3/11 6/2/10 8/4/12
